<?xml version="1.0" encoding="UTF-8" standalone="no"?>
<svg xmlns:dc="http://purl.org/dc/elements/1.1/" xmlns:cc="http://creativecommons.org/ns#" xmlns:rdf="http://www.w3.org/1999/02/22-rdf-syntax-ns#" xmlns:svg="http://www.w3.org/2000/svg" xmlns="http://www.w3.org/2000/svg" id="svg8" version="1.1" viewBox="0 0 210 297" height="297mm" width="210mm">
  <defs id="defs2" />
  <metadata id="metadata5">
    <rdf:RDF>
      <cc:Work rdf:about="">
        <dc:format>image/svg+xml</dc:format>
        <dc:type rdf:resource="http://purl.org/dc/dcmitype/StillImage" />
        <dc:title></dc:title>
      </cc:Work>
    </rdf:RDF>
  </metadata>
  <g id="layer1">
    <path id="rect10" d="M 5.2850041,196.30178 H 94.209045 c 1.542892,0 2.785004,0.97001 2.785004,2.17491 v 93.8484 c 0,1.2049 -1.242112,2.17491 -2.785004,2.17491 H 5.2850041 C 3.7421118,294.5 2.5,293.52999 2.5,292.32509 v -93.8484 c 0,-1.2049 1.2421118,-2.17491 2.7850041,-2.17491 z" style="color:#000000;display:inline;overflow:visible;visibility:visible;opacity:1;vector-effect:none;fill:#ecf8c0;fill-opacity:1;fill-rule:evenodd;stroke:#000000;stroke-width:5;stroke-linecap:butt;stroke-linejoin:miter;stroke-miterlimit:4;stroke-dasharray:none;stroke-dashoffset:0;stroke-opacity:1;marker:none;enable-background:accumulate" />
    <path id="rect817" d="m 15.583056,205.37522 h 69.347336 c 1.542892,0 2.785004,0.97001 2.785004,2.17491 v 11.55292 c 0,1.2049 -1.242112,2.17491 -2.785004,2.17491 H 15.583056 c -1.542893,0 -2.785005,-0.97001 -2.785005,-2.17491 v -11.55292 c 0,-1.2049 1.242112,-2.17491 2.785005,-2.17491 z" style="color:#000000;display:inline;overflow:visible;visibility:visible;opacity:1;vector-effect:none;fill:#fdfdfd;fill-opacity:1;fill-rule:evenodd;stroke:#000000;stroke-width:5;stroke-linecap:butt;stroke-linejoin:miter;stroke-miterlimit:4;stroke-dasharray:none;stroke-dashoffset:0;stroke-opacity:1;marker:none;enable-background:accumulate" />
    <path id="rect819" d="m 14.563648,230.45261 h 6.866748 c 1.542892,0 2.785004,0.97001 2.785004,2.17491 v 8.29082 c 0,1.2049 -1.242111,2.17491 -2.785004,2.17491 h -6.866748 c -1.542892,0 -2.785004,-0.97001 -2.785004,-2.17491 v -8.29082 c 0,-1.2049 1.242112,-2.17491 2.785004,-2.17491 z" style="color:#000000;display:inline;overflow:visible;visibility:visible;opacity:1;vector-effect:none;fill:#c4c1f1;fill-opacity:1;fill-rule:evenodd;stroke:#000000;stroke-width:5;stroke-linecap:butt;stroke-linejoin:miter;stroke-miterlimit:4;stroke-dasharray:none;stroke-dashoffset:0;stroke-opacity:1;marker:none;enable-background:accumulate" />
    <path id="rect819-3" d="m 78.063644,230.45261 h 6.866748 c 1.542894,0 2.785004,0.97001 2.785004,2.17491 v 8.29082 c 0,1.2049 -1.24211,2.17491 -2.785004,2.17491 h -6.866748 c -1.542892,0 -2.785004,-0.97001 -2.785004,-2.17491 v -8.29082 c 0,-1.2049 1.242112,-2.17491 2.785004,-2.17491 z" style="color:#000000;display:inline;overflow:visible;visibility:visible;opacity:1;vector-effect:none;fill:#bfb100;fill-opacity:1;fill-rule:evenodd;stroke:#000000;stroke-width:5;stroke-linecap:butt;stroke-linejoin:miter;stroke-miterlimit:4;stroke-dasharray:none;stroke-dashoffset:0;stroke-opacity:1;marker:none;enable-background:accumulate" />
    <path id="rect819-3-6" d="m 35.730313,230.45261 h 6.866748 c 1.542893,0 2.785004,0.97001 2.785004,2.17491 v 8.29082 c 0,1.2049 -1.242111,2.17491 -2.785004,2.17491 h -6.866748 c -1.542892,0 -2.785004,-0.97001 -2.785004,-2.17491 v -8.29082 c 0,-1.2049 1.242112,-2.17491 2.785004,-2.17491 z" style="color:#000000;display:inline;overflow:visible;visibility:visible;opacity:1;vector-effect:none;fill:#c4c1f1;fill-opacity:1;fill-rule:evenodd;stroke:#000000;stroke-width:5;stroke-linecap:butt;stroke-linejoin:miter;stroke-miterlimit:4;stroke-dasharray:none;stroke-dashoffset:0;stroke-opacity:1;marker:none;enable-background:accumulate" />
    <path id="rect819-3-7" d="m 56.896981,230.45261 h 6.866748 c 1.542891,0 2.785003,0.97001 2.785003,2.17491 v 8.29082 c 0,1.2049 -1.242112,2.17491 -2.785003,2.17491 h -6.866748 c -1.542892,0 -2.785004,-0.97001 -2.785004,-2.17491 v -8.29082 c 0,-1.2049 1.242112,-2.17491 2.785004,-2.17491 z" style="color:#000000;display:inline;overflow:visible;visibility:visible;opacity:1;vector-effect:none;fill:#c4c1f1;fill-opacity:1;fill-rule:evenodd;stroke:#000000;stroke-width:5;stroke-linecap:butt;stroke-linejoin:miter;stroke-miterlimit:4;stroke-dasharray:none;stroke-dashoffset:0;stroke-opacity:1;marker:none;enable-background:accumulate" />
    <path id="rect819-5" d="m 14.563648,251.6193 h 6.866748 c 1.542892,0 2.785004,0.97001 2.785004,2.17491 v 8.29082 c 0,1.2049 -1.242111,2.17491 -2.785004,2.17491 h -6.866748 c -1.542892,0 -2.785004,-0.97001 -2.785004,-2.17491 v -8.29082 c 0,-1.2049 1.242112,-2.17491 2.785004,-2.17491 z" style="color:#000000;display:inline;overflow:visible;visibility:visible;opacity:1;vector-effect:none;fill:#c4c1f1;fill-opacity:1;fill-rule:evenodd;stroke:#000000;stroke-width:5;stroke-linecap:butt;stroke-linejoin:miter;stroke-miterlimit:4;stroke-dasharray:none;stroke-dashoffset:0;stroke-opacity:1;marker:none;enable-background:accumulate" />
    <path id="rect819-3-3" d="M 78.063652,251.6193 H 84.9304 c 1.542892,0 2.785004,0.97001 2.785004,2.17491 v 8.29082 c 0,1.2049 -1.242112,2.17491 -2.785004,2.17491 h -6.866748 c -1.542892,0 -2.785004,-0.97001 -2.785004,-2.17491 v -8.29082 c 0,-1.2049 1.242112,-2.17491 2.785004,-2.17491 z" style="color:#000000;display:inline;overflow:visible;visibility:visible;opacity:1;vector-effect:none;fill:#bfb100;fill-opacity:1;fill-rule:evenodd;stroke:#000000;stroke-width:5;stroke-linecap:butt;stroke-linejoin:miter;stroke-miterlimit:4;stroke-dasharray:none;stroke-dashoffset:0;stroke-opacity:1;marker:none;enable-background:accumulate" />
    <path id="rect819-3-6-5" d="m 35.730313,251.6193 h 6.866748 c 1.542893,0 2.785004,0.97001 2.785004,2.17491 v 8.29082 c 0,1.2049 -1.242111,2.17491 -2.785004,2.17491 h -6.866748 c -1.542892,0 -2.785004,-0.97001 -2.785004,-2.17491 v -8.29082 c 0,-1.2049 1.242112,-2.17491 2.785004,-2.17491 z" style="color:#000000;display:inline;overflow:visible;visibility:visible;opacity:1;vector-effect:none;fill:#c4c1f1;fill-opacity:1;fill-rule:evenodd;stroke:#000000;stroke-width:5;stroke-linecap:butt;stroke-linejoin:miter;stroke-miterlimit:4;stroke-dasharray:none;stroke-dashoffset:0;stroke-opacity:1;marker:none;enable-background:accumulate" />
    <path id="rect819-3-7-6" d="m 56.896985,251.6193 h 6.866747 c 1.542892,0 2.785004,0.97001 2.785004,2.17491 v 8.29082 c 0,1.2049 -1.242112,2.17491 -2.785004,2.17491 h -6.866748 c -1.542892,0 -2.785004,-0.97001 -2.785004,-2.17491 v -8.29082 c 0,-1.2049 1.242112,-2.17491 2.785005,-2.17491 z" style="color:#000000;display:inline;overflow:visible;visibility:visible;opacity:1;vector-effect:none;fill:#c4c1f1;fill-opacity:1;fill-rule:evenodd;stroke:#000000;stroke-width:5;stroke-linecap:butt;stroke-linejoin:miter;stroke-miterlimit:4;stroke-dasharray:none;stroke-dashoffset:0;stroke-opacity:1;marker:none;enable-background:accumulate" />
    <path id="rect819-2" d="m 14.563648,272.78593 h 6.866748 c 1.542892,0 2.785004,0.97 2.785004,2.1749 v 8.29083 c 0,1.2049 -1.242111,2.1749 -2.785004,2.1749 h -6.866748 c -1.542892,0 -2.785004,-0.97 -2.785004,-2.1749 v -8.29083 c 0,-1.2049 1.242112,-2.1749 2.785004,-2.1749 z" style="color:#000000;display:inline;overflow:visible;visibility:visible;opacity:1;vector-effect:none;fill:#c4c1f1;fill-opacity:1;fill-rule:evenodd;stroke:#000000;stroke-width:5;stroke-linecap:butt;stroke-linejoin:miter;stroke-miterlimit:4;stroke-dasharray:none;stroke-dashoffset:0;stroke-opacity:1;marker:none;enable-background:accumulate" />
    <path id="rect819-3-9" d="M 78.063652,272.78593 H 84.9304 c 1.542892,0 2.785004,0.97 2.785004,2.1749 v 8.29083 c 0,1.20489 -1.242112,2.1749 -2.785004,2.1749 h -6.866748 c -1.542892,0 -2.785004,-0.97001 -2.785004,-2.1749 v -8.29083 c 0,-1.2049 1.242112,-2.1749 2.785004,-2.1749 z" style="color:#000000;display:inline;overflow:visible;visibility:visible;opacity:1;vector-effect:none;fill:#bfb100;fill-opacity:1;fill-rule:evenodd;stroke:#000000;stroke-width:5;stroke-linecap:butt;stroke-linejoin:miter;stroke-miterlimit:4;stroke-dasharray:none;stroke-dashoffset:0;stroke-opacity:1;marker:none;enable-background:accumulate" />
    <path id="rect819-3-6-1" d="m 35.730313,272.78593 h 6.866748 c 1.542893,0 2.785004,0.97 2.785004,2.1749 v 8.29083 c 0,1.20489 -1.242111,2.1749 -2.785004,2.1749 h -6.866748 c -1.542892,0 -2.785004,-0.97001 -2.785004,-2.1749 v -8.29083 c 0,-1.2049 1.242112,-2.1749 2.785004,-2.1749 z" style="color:#000000;display:inline;overflow:visible;visibility:visible;opacity:1;vector-effect:none;fill:#c4c1f1;fill-opacity:1;fill-rule:evenodd;stroke:#000000;stroke-width:5;stroke-linecap:butt;stroke-linejoin:miter;stroke-miterlimit:4;stroke-dasharray:none;stroke-dashoffset:0;stroke-opacity:1;marker:none;enable-background:accumulate" />
    <path id="rect819-3-7-2" d="m 56.896985,272.78593 h 6.866747 c 1.542892,0 2.785004,0.97 2.785004,2.1749 v 8.29083 c 0,1.20489 -1.242112,2.1749 -2.785004,2.1749 h -6.866748 c -1.542892,0 -2.785004,-0.97001 -2.785004,-2.1749 v -8.29083 c 0,-1.2049 1.242112,-2.1749 2.785005,-2.1749 z" style="color:#000000;display:inline;overflow:visible;visibility:visible;opacity:1;vector-effect:none;fill:#bfb100;fill-opacity:1;fill-rule:evenodd;stroke:#000000;stroke-width:5;stroke-linecap:butt;stroke-linejoin:miter;stroke-miterlimit:4;stroke-dasharray:none;stroke-dashoffset:0;stroke-opacity:1;marker:none;enable-background:accumulate" />
  </g>
</svg>
